<?xml version="1.0" standalone="no"?>
<!DOCTYPE svg PUBLIC "-//W3C//DTD SVG 20010904//EN"
 "http://www.w3.org/TR/2001/REC-SVG-20010904/DTD/svg10.dtd">
<svg version="1.0" xmlns="http://www.w3.org/2000/svg"
 width="905.000000pt" height="905.000000pt" viewBox="0 0 905.000000 905.000000"
 preserveAspectRatio="xMidYMid meet">
<metadata>
Created by potrace 1.11, written by Peter Selinger 2001-2013
</metadata>
<g transform="translate(0.000000,905.000000) scale(0.100000,-0.100000)"
fill="#000000" stroke="none">
<path d="M6165 9043 c-57 -16 -173 -68 -213 -95 -129 -89 -220 -222 -261 -383
-31 -121 -33 -326 -6 -505 11 -72 47 -246 56 -270 4 -14 10 -36 13 -50 2 -14
23 -101 46 -195 23 -93 44 -179 45 -190 2 -11 4 -21 5 -22 3 -4 5 -11 15 -68
5 -27 9 -52 10 -55 1 -3 5 -30 10 -60 4 -30 11 -64 13 -75 3 -11 7 -1041 8
-2290 3 -2314 3 -2296 -30 -2440 -2 -11 -9 -41 -15 -66 -37 -163 -134 -406
-229 -574 -173 -309 -376 -531 -643 -705 -164 -107 -469 -244 -588 -265 -19
-3 -38 -8 -42 -10 -14 -9 -165 -35 -239 -42 -269 -23 -482 13 -695 117 -153
75 -266 172 -391 337 -66 87 -154 291 -168 386 -4 27 -9 58 -12 70 -2 12 -6
37 -9 57 -3 20 -7 47 -10 60 -27 138 -24 448 6 615 18 104 20 114 32 155 l12
41 35 -31 c93 -84 192 -128 306 -137 l71 -6 -24 104 c-13 57 -25 115 -27 129
-3 14 -12 67 -20 119 -9 52 -19 112 -22 135 -2 22 -6 52 -9 66 -7 48 -20 166
-30 270 -3 36 -8 81 -10 100 -2 19 -7 76 -11 125 -3 50 -8 115 -10 145 -3 51
-7 123 -20 395 -6 138 -7 774 0 838 2 26 2 47 0 47 -2 0 -20 -35 -40 -77 -67
-144 -88 -188 -89 -193 -1 -3 -20 -43 -42 -90 -39 -81 -94 -200 -133 -285 -10
-22 -35 -76 -55 -120 -50 -107 -172 -394 -202 -475 -13 -35 -27 -69 -31 -75
-4 -5 -7 -14 -9 -20 -1 -5 -18 -53 -38 -105 -65 -170 -180 -536 -199 -630 -9
-45 -15 -71 -21 -90 -3 -10 -8 -31 -10 -46 -2 -16 -7 -40 -10 -54 -3 -14 -8
-38 -10 -55 -3 -16 -7 -41 -10 -55 -3 -14 -8 -47 -11 -75 -3 -27 -10 -66 -16
-85 -5 -19 -12 -143 -15 -275 -5 -218 -1 -284 22 -410 2 -11 6 -38 10 -60 4
-22 11 -60 17 -85 5 -25 11 -52 13 -60 37 -180 139 -426 258 -621 167 -275
327 -438 562 -571 143 -82 391 -165 541 -182 27 -4 65 -9 84 -13 41 -8 411 -8
455 0 17 3 50 8 75 11 44 5 81 11 130 21 14 3 41 8 60 11 19 3 44 8 55 12 25
8 23 7 70 17 22 4 46 12 53 18 6 5 12 7 12 4 0 -3 33 5 73 19 39 14 79 27 87
29 29 6 196 78 290 124 263 130 441 259 655 475 134 135 160 165 251 289 29
39 57 77 62 83 23 27 135 220 177 305 69 140 163 385 181 474 1 6 7 28 12 50
6 22 14 55 17 74 3 19 8 37 10 40 2 4 6 25 9 47 4 22 9 51 11 64 3 14 8 45 11
70 2 25 7 59 9 75 15 105 18 485 20 2463 1 1214 5 2221 8 2237 4 17 10 41 13
55 3 14 8 38 11 55 7 42 85 257 122 338 17 37 31 69 31 72 0 2 13 32 29 67 16
35 39 86 51 113 25 54 70 171 76 195 2 8 10 40 18 69 44 160 50 368 14 506 -5
22 -12 47 -13 56 -7 38 -61 159 -98 220 -72 120 -154 192 -278 244 -52 22 -83
28 -164 31 -55 1 -109 0 -120 -3z m36 -490 c16 -10 40 -40 54 -66 39 -79 31
-162 -36 -380 -35 -116 -56 -171 -61 -160 -8 20 -46 140 -53 163 -2 8 -14 44
-26 80 -28 81 -38 263 -18 313 27 66 81 85 140 50z"/>
</g>
</svg>
